<svg width="25" height="29" viewBox="0 0 25 29" fill="none" xmlns="http://www.w3.org/2000/svg">
<path d="M24.9963 0.814941L12.0695 14.9681L8.0691 22.4935C8.0691 22.4935 2.15358 15.5346 8.68799 9.01541C13.9512 3.76511 16.8057 0.841519 24.9963 0.814941Z" fill="url(#paint0_linear_157_4)"/>
<path d="M24.9963 0.814941C24.9963 0.814941 25.1611 6.00374 23.2938 10.0542C21.4272 14.104 17.5985 20.3377 14.4023 22.9324C11.2061 25.5272 8.06834 22.4935 8.06834 22.4935L12.0687 14.9681L24.9963 0.814941Z" fill="url(#paint1_linear_157_4)"/>
<path d="M0 8.12847C0.681917 15.5794 3.2038 19.1022 5.34295 21.7653C5.82363 22.3637 6.44708 23.0167 7.12444 23.6706L12.1697 14.754C7.01205 7.63867 0 8.12847 0 8.12847Z" fill="url(#paint2_linear_157_4)"/>
<path d="M12.5008 15.2225C12.3915 15.0623 12.2813 14.9074 12.1705 14.754L7.1252 23.6706C9.46407 25.9267 12.4514 28.185 12.4514 28.185C12.4514 28.185 17.6843 22.8277 12.5008 15.2218V15.2225Z" fill="url(#paint3_linear_157_4)"/>
<defs>
<linearGradient id="paint0_linear_157_4" x1="0.339693" y1="23.6071" x2="18.0612" y2="0.501327" gradientUnits="userSpaceOnUse">
<stop stop-color="#A6FBD0"/>
<stop offset="1" stop-color="#16F5A2"/>
</linearGradient>
<linearGradient id="paint1_linear_157_4" x1="4.34926" y1="25.969" x2="19.8134" y2="1.30496" gradientUnits="userSpaceOnUse">
<stop stop-color="#32F6B4"/>
<stop offset="1" stop-color="#04C98B"/>
</linearGradient>
<linearGradient id="paint2_linear_157_4" x1="4.92325" y1="7.24355" x2="16.2416" y2="20.5144" gradientUnits="userSpaceOnUse">
<stop stop-color="#32F6B4"/>
<stop offset="1" stop-color="#14B6E2"/>
</linearGradient>
<linearGradient id="paint3_linear_157_4" x1="15.5922" y1="18.9564" x2="8.26426" y2="24.5681" gradientUnits="userSpaceOnUse">
<stop stop-color="#0099FF"/>
<stop offset="1" stop-color="#14B6E2"/>
</linearGradient>
</defs>
</svg>
