<svg width="140" height="29" viewBox="0 0 140 29" fill="none" xmlns="http://www.w3.org/2000/svg">
<path d="M24.9963 0.814941L12.0695 14.9681L8.0691 22.4935C8.0691 22.4935 2.15358 15.5346 8.68799 9.01541C13.9512 3.76511 16.8057 0.841519 24.9963 0.814941Z" fill="url(#paint0_linear_18_52)"/>
<path d="M24.9963 0.814941C24.9963 0.814941 25.1611 6.00374 23.2938 10.0542C21.4272 14.104 17.5985 20.3377 14.4023 22.9324C11.2061 25.5272 8.06834 22.4935 8.06834 22.4935L12.0687 14.9681L24.9963 0.814941Z" fill="url(#paint1_linear_18_52)"/>
<path d="M0 8.12847C0.681917 15.5794 3.2038 19.1022 5.34295 21.7653C5.82363 22.3637 6.44708 23.0167 7.12444 23.6706L12.1697 14.754C7.01205 7.63867 0 8.12847 0 8.12847Z" fill="url(#paint2_linear_18_52)"/>
<path d="M12.5008 15.2225C12.3915 15.0623 12.2813 14.9074 12.1705 14.754L7.1252 23.6706C9.46407 25.9267 12.4514 28.185 12.4514 28.185C12.4514 28.185 17.6843 22.8277 12.5008 15.2218V15.2225Z" fill="url(#paint3_linear_18_52)"/>
<path d="M50.7148 5.21336L43.5648 24.7083H38.8167L31.6667 5.21336H35.8561L41.2187 20.7144L46.5532 5.21336H50.7148Z" fill="#1E1E1E"/>
<path d="M68.6718 5.21336V24.7083H64.7617V16.4132H56.4107V24.7083H52.5005V5.21336H56.4107V13.2292H64.7617V5.21336H68.6718Z" fill="#1E1E1E"/>
<path d="M86.3457 16.6366C86.3457 17.1952 86.3085 17.698 86.234 18.1448H74.9224C75.0155 19.262 75.4065 20.1372 76.0955 20.7702C76.7844 21.4033 77.6316 21.7198 78.6371 21.7198C80.0894 21.7198 81.1228 21.0961 81.7373 19.8485H85.9547C85.5078 21.3381 84.6513 22.567 83.3851 23.5353C82.119 24.4849 80.5642 24.9597 78.7209 24.9597C77.2313 24.9597 75.8907 24.6338 74.699 23.9821C73.5259 23.3118 72.6043 22.3715 71.9339 21.1612C71.2822 19.951 70.9564 18.5545 70.9564 16.9718C70.9564 15.3705 71.2822 13.9647 71.9339 12.7544C72.5856 11.5441 73.498 10.6131 74.6711 9.96142C75.8441 9.30972 77.194 8.98388 78.7209 8.98388C80.1918 8.98388 81.5045 9.30041 82.659 9.93349C83.832 10.5666 84.7351 11.4696 85.3681 12.6427C86.0198 13.7971 86.3457 15.1284 86.3457 16.6366ZM82.2959 15.5194C82.2773 14.514 81.9142 13.7133 81.2066 13.1175C80.4991 12.503 79.6332 12.1958 78.6092 12.1958C77.6409 12.1958 76.8217 12.4937 76.1513 13.0895C75.4996 13.6668 75.0993 14.4767 74.9504 15.5194H82.2959Z" fill="#1E1E1E"/>
<path d="M111.679 4.04031V24.7083H107.769V4.04031H111.679Z" fill="#1E1E1E"/>
<path d="M119.536 12.4472V19.9323C119.536 20.4537 119.657 20.8354 119.899 21.0775C120.16 21.3009 120.588 21.4126 121.184 21.4126H122.999V24.7083H120.542C117.246 24.7083 115.598 23.107 115.598 19.9044V12.4472H113.755V9.23524H115.598V5.40887H119.536V9.23524H122.999V12.4472H119.536Z" fill="#1E1E1E"/>
<path d="M133.967 9.01181C135.14 9.01181 136.183 9.27248 137.095 9.79384C138.008 10.2966 138.715 11.0507 139.218 12.0561C139.739 13.043 140 14.2347 140 15.6312V24.7083H136.09V16.1618C136.09 14.9329 135.783 13.9926 135.168 13.3409C134.554 12.6706 133.716 12.3354 132.654 12.3354C131.575 12.3354 130.718 12.6706 130.085 13.3409C129.471 13.9926 129.163 14.9329 129.163 16.1618V24.7083H125.253V4.04031H129.163V11.1624C129.666 10.4921 130.336 9.97073 131.174 9.59833C132.012 9.20731 132.943 9.01181 133.967 9.01181Z" fill="#1E1E1E"/>
<path d="M96.6721 8.72821C100.083 8.72821 102.261 10.9736 102.578 11.3063C104.242 13.0531 104.519 15.4643 104.491 16.5456C104.491 18.3755 104.324 20.6377 104.324 21.3698C104.324 22.1018 104.74 24.4494 104.823 24.6989H100.914C100.914 24.6989 100.665 23.2832 100.665 22.7009C100.665 22.1186 100.249 23.2835 98.8352 23.9489C97.4211 24.6143 95.4241 24.614 95.4241 24.614C90.1008 24.6137 88.7699 19.5411 88.6868 16.9626C88.6868 10.2417 94.0103 8.67279 96.6721 8.72821ZM96.8381 12.0534C94.6333 12.0537 92.8461 14.1763 92.8459 16.7946C92.8459 19.413 94.6332 21.5356 96.8381 21.5358C99.0432 21.5358 100.831 19.4132 100.831 16.7946C100.831 14.1762 99.0432 12.0534 96.8381 12.0534Z" fill="url(#paint4_linear_18_52)"/>
<path d="M96.6721 8.72821L96.6712 8.76999H96.6721V8.72821ZM102.578 11.3063L102.609 11.2775V11.2775L102.578 11.3063ZM104.491 16.5456L104.45 16.5445V16.5456L104.491 16.5456ZM104.324 21.3698L104.283 21.3698V21.3698H104.324ZM104.823 24.6989V24.7407H104.881L104.863 24.6857L104.823 24.6989ZM100.914 24.6989L100.873 24.7062L100.879 24.7407H100.914V24.6989ZM100.665 22.7009H100.624V22.7009L100.665 22.7009ZM98.8352 23.9489L98.853 23.9867V23.9867L98.8352 23.9489ZM95.4241 24.614L95.4241 24.5722H95.4241L95.4241 24.614ZM88.6868 16.9626H88.645L88.645 16.9639L88.6868 16.9626ZM96.8381 12.0534V12.0116H96.8381L96.8381 12.0534ZM92.8459 16.7946L92.8042 16.7946V16.7946H92.8459ZM96.8381 21.5358L96.8381 21.5776H96.8381V21.5358ZM100.831 16.7946H100.873V16.7946L100.831 16.7946ZM96.6721 8.72821V8.76999C100.064 8.76999 102.233 11.004 102.548 11.3351L102.578 11.3063L102.609 11.2775C102.29 10.9432 100.101 8.68644 96.6721 8.68644V8.72821ZM102.578 11.3063L102.548 11.3351C104.201 13.0704 104.477 15.4684 104.45 16.5445L104.491 16.5456L104.533 16.5467C104.561 15.4602 104.283 13.0358 102.609 11.2775L102.578 11.3063ZM104.491 16.5456L104.45 16.5456C104.45 17.4595 104.408 18.4817 104.366 19.3674C104.325 20.2521 104.283 21.0025 104.283 21.3698L104.324 21.3698L104.366 21.3698C104.366 21.0051 104.408 20.2583 104.45 19.3713C104.491 18.4855 104.533 17.4616 104.533 16.5456L104.491 16.5456ZM104.324 21.3698H104.283C104.283 21.7398 104.387 22.5131 104.502 23.2219C104.559 23.5771 104.619 23.9172 104.669 24.1842C104.72 24.4496 104.762 24.6464 104.784 24.7121L104.823 24.6989L104.863 24.6857C104.843 24.6266 104.802 24.4364 104.751 24.1686C104.701 23.9024 104.641 23.5631 104.584 23.2086C104.47 22.4983 104.366 21.7318 104.366 21.3698H104.324ZM104.823 24.6989V24.6571H100.914V24.6989V24.7407H104.823V24.6989ZM100.914 24.6989C100.955 24.6917 100.955 24.6917 100.955 24.6917C100.955 24.6917 100.955 24.6916 100.955 24.6916C100.955 24.6916 100.955 24.6915 100.955 24.6914C100.955 24.6913 100.955 24.691 100.955 24.6907C100.955 24.69 100.955 24.689 100.955 24.6876C100.954 24.685 100.954 24.681 100.953 24.6757C100.951 24.6653 100.948 24.6498 100.945 24.6299C100.938 24.5901 100.928 24.5326 100.917 24.4618C100.893 24.3202 100.862 24.1253 100.831 23.9122C100.769 23.485 100.707 22.9885 100.707 22.7009L100.665 22.7009L100.624 22.7009C100.624 22.9955 100.686 23.498 100.748 23.9243C100.78 24.138 100.811 24.3334 100.834 24.4754C100.846 24.5464 100.856 24.6041 100.862 24.644C100.866 24.6639 100.869 24.6795 100.87 24.69C100.871 24.6953 100.872 24.6993 100.872 24.702C100.873 24.7034 100.873 24.7044 100.873 24.7051C100.873 24.7054 100.873 24.7057 100.873 24.7059C100.873 24.706 100.873 24.706 100.873 24.7061C100.873 24.7061 100.873 24.7061 100.873 24.7061C100.873 24.7061 100.873 24.7062 100.914 24.6989ZM100.665 22.7009H100.707C100.707 22.6635 100.705 22.6317 100.702 22.6056C100.698 22.5803 100.692 22.5565 100.68 22.5379C100.667 22.5171 100.646 22.502 100.619 22.5011C100.596 22.5003 100.574 22.5102 100.556 22.5211C100.52 22.5432 100.478 22.5845 100.429 22.6356C100.379 22.6873 100.319 22.754 100.25 22.8286C99.9705 23.1288 99.5173 23.5818 98.8174 23.9111L98.8352 23.9489L98.853 23.9867C99.5672 23.6506 100.029 23.1885 100.311 22.8855C100.382 22.8093 100.44 22.7446 100.489 22.6933C100.539 22.6413 100.575 22.6078 100.6 22.5922C100.613 22.5843 100.617 22.5846 100.616 22.5846C100.611 22.5844 100.608 22.5804 100.609 22.5822C100.612 22.5862 100.616 22.5964 100.619 22.6176C100.622 22.6381 100.624 22.6655 100.624 22.7009H100.665ZM98.8352 23.9489L98.8174 23.9111C98.1163 24.241 97.2686 24.4066 96.5943 24.4895C96.2575 24.5309 95.9647 24.5516 95.7561 24.5619C95.6519 24.567 95.5687 24.5696 95.5117 24.5709C95.4832 24.5715 95.4612 24.5719 95.4464 24.572C95.439 24.5721 95.4334 24.5721 95.4296 24.5722C95.4278 24.5722 95.4264 24.5722 95.4254 24.5722C95.425 24.5722 95.4246 24.5722 95.4244 24.5722C95.4243 24.5722 95.4242 24.5722 95.4241 24.5722C95.4241 24.5722 95.4241 24.5722 95.4241 24.5722C95.4241 24.5722 95.4241 24.5722 95.4241 24.614C95.4241 24.6557 95.4241 24.6557 95.4241 24.6557C95.4241 24.6557 95.4241 24.6557 95.4242 24.6557C95.4243 24.6557 95.4244 24.6557 95.4245 24.6557C95.4247 24.6557 95.4251 24.6557 95.4256 24.6557C95.4266 24.6557 95.4281 24.6557 95.4301 24.6557C95.434 24.6557 95.4397 24.6556 95.4473 24.6556C95.4624 24.6554 95.4847 24.6551 95.5136 24.6544C95.5713 24.6531 95.6552 24.6505 95.7603 24.6453C95.9704 24.6349 96.2652 24.6141 96.6045 24.5724C97.2821 24.4891 98.14 24.3222 98.853 23.9867L98.8352 23.9489ZM95.4241 24.614L95.4241 24.5722C92.7786 24.572 91.1276 23.3128 90.1257 21.7328C89.1224 20.1505 88.77 18.2457 88.7285 16.9612L88.6868 16.9626L88.645 16.9639C88.6868 18.258 89.0414 20.1788 90.0551 21.7775C91.0702 23.3784 92.7463 24.6556 95.4241 24.6557L95.4241 24.614ZM88.6868 16.9626H88.7285C88.7286 13.6149 90.0535 11.5552 91.7061 10.3379C93.3607 9.1191 95.3474 8.74241 96.6712 8.76998L96.6721 8.72821L96.673 8.68644C95.335 8.65858 93.3291 9.03863 91.6565 10.2706C89.9818 11.5042 88.645 13.5894 88.645 16.9626H88.6868ZM96.8381 12.0534L96.8381 12.0116C94.6038 12.0119 92.8043 14.1603 92.8042 16.7946L92.8459 16.7946L92.8877 16.7946C92.8878 14.1924 94.6628 12.0954 96.8381 12.0952L96.8381 12.0534ZM92.8459 16.7946H92.8042C92.8042 19.4291 94.6037 21.5773 96.8381 21.5776L96.8381 21.5358L96.8381 21.4941C94.6627 21.4938 92.8877 19.397 92.8877 16.7946H92.8459ZM96.8381 21.5358V21.5776C99.0727 21.5776 100.873 19.4292 100.873 16.7946H100.831H100.79C100.79 19.3971 99.0137 21.4941 96.8381 21.4941V21.5358ZM100.831 16.7946L100.873 16.7946C100.873 14.1601 99.0727 12.0116 96.8381 12.0116V12.0534V12.0952C99.0137 12.0952 100.789 14.1922 100.79 16.7946L100.831 16.7946Z" fill="#E0FFF5"/>
<defs>
<linearGradient id="paint0_linear_18_52" x1="0.339693" y1="23.6071" x2="18.0612" y2="0.501327" gradientUnits="userSpaceOnUse">
<stop stop-color="#A6FBD0"/>
<stop offset="1" stop-color="#16F5A2"/>
</linearGradient>
<linearGradient id="paint1_linear_18_52" x1="4.34926" y1="25.969" x2="19.8134" y2="1.30496" gradientUnits="userSpaceOnUse">
<stop stop-color="#32F6B4"/>
<stop offset="1" stop-color="#04C98B"/>
</linearGradient>
<linearGradient id="paint2_linear_18_52" x1="4.92325" y1="7.24355" x2="16.2416" y2="20.5144" gradientUnits="userSpaceOnUse">
<stop stop-color="#32F6B4"/>
<stop offset="1" stop-color="#14B6E2"/>
</linearGradient>
<linearGradient id="paint3_linear_18_52" x1="15.5922" y1="18.9564" x2="8.26426" y2="24.5681" gradientUnits="userSpaceOnUse">
<stop stop-color="#0099FF"/>
<stop offset="1" stop-color="#14B6E2"/>
</linearGradient>
<linearGradient id="paint4_linear_18_52" x1="96.7551" y1="8.7262" x2="96.7551" y2="24.6983" gradientUnits="userSpaceOnUse">
<stop stop-color="#32F6B4"/>
<stop offset="1" stop-color="#14B6E2"/>
</linearGradient>
</defs>
</svg>
